<mxfile host="app.diagrams.net" modified="2023-05-20T07:42:22.590Z" agent="Mozilla/5.0 (Windows NT 10.0; Win64; x64) AppleWebKit/537.36 (KHTML, like Gecko) Chrome/113.0.0.0 Safari/537.36 Edg/113.0.1774.42" etag="TaNIC_jMGEjW-S_VpPvr" version="21.3.2" type="github">
  <diagram name="Page-1" id="2YBvvXClWsGukQMizWep">
    <mxGraphModel dx="1434" dy="764" grid="1" gridSize="10" guides="1" tooltips="1" connect="1" arrows="1" fold="1" page="1" pageScale="1" pageWidth="850" pageHeight="1100" math="0" shadow="0">
      <root>
        <mxCell id="0" />
        <mxCell id="1" parent="0" />
        <mxCell id="xRDu_YCOASXkidpbAp75-3" value="" style="edgeStyle=orthogonalEdgeStyle;rounded=0;orthogonalLoop=1;jettySize=auto;html=1;" edge="1" parent="1" source="xRDu_YCOASXkidpbAp75-1" target="xRDu_YCOASXkidpbAp75-2">
          <mxGeometry relative="1" as="geometry" />
        </mxCell>
        <mxCell id="xRDu_YCOASXkidpbAp75-1" value="customizeSynthesizeVoice" style="rounded=0;whiteSpace=wrap;html=1;" vertex="1" parent="1">
          <mxGeometry x="380" y="80" width="170" height="50" as="geometry" />
        </mxCell>
        <mxCell id="xRDu_YCOASXkidpbAp75-7" value="" style="edgeStyle=orthogonalEdgeStyle;rounded=0;orthogonalLoop=1;jettySize=auto;html=1;" edge="1" parent="1" source="xRDu_YCOASXkidpbAp75-2" target="xRDu_YCOASXkidpbAp75-6">
          <mxGeometry relative="1" as="geometry" />
        </mxCell>
        <mxCell id="xRDu_YCOASXkidpbAp75-2" value="initAudioApiConfigRequest" style="rounded=0;whiteSpace=wrap;html=1;" vertex="1" parent="1">
          <mxGeometry x="380" y="170" width="170" height="50" as="geometry" />
        </mxCell>
        <mxCell id="xRDu_YCOASXkidpbAp75-4" value="个性化合成语音" style="text;html=1;strokeColor=none;fillColor=none;align=center;verticalAlign=middle;whiteSpace=wrap;rounded=0;" vertex="1" parent="1">
          <mxGeometry x="270" y="90" width="60" height="30" as="geometry" />
        </mxCell>
        <mxCell id="xRDu_YCOASXkidpbAp75-5" value="整合个人设置到音频接口设置中" style="text;html=1;strokeColor=none;fillColor=none;align=center;verticalAlign=middle;whiteSpace=wrap;rounded=0;" vertex="1" parent="1">
          <mxGeometry x="270" y="180" width="60" height="30" as="geometry" />
        </mxCell>
        <mxCell id="xRDu_YCOASXkidpbAp75-6" value="getAudioData" style="rounded=0;whiteSpace=wrap;html=1;" vertex="1" parent="1">
          <mxGeometry x="380" y="270" width="170" height="50" as="geometry" />
        </mxCell>
        <mxCell id="xRDu_YCOASXkidpbAp75-8" value="获取音频数据" style="text;html=1;strokeColor=none;fillColor=none;align=center;verticalAlign=middle;whiteSpace=wrap;rounded=0;" vertex="1" parent="1">
          <mxGeometry x="270" y="280" width="60" height="30" as="geometry" />
        </mxCell>
        <mxCell id="xRDu_YCOASXkidpbAp75-9" value="" style="edgeStyle=orthogonalEdgeStyle;rounded=0;orthogonalLoop=1;jettySize=auto;html=1;" edge="1" parent="1" target="xRDu_YCOASXkidpbAp75-10">
          <mxGeometry relative="1" as="geometry">
            <mxPoint x="465" y="320" as="sourcePoint" />
          </mxGeometry>
        </mxCell>
        <mxCell id="xRDu_YCOASXkidpbAp75-10" value="getAudioSynthesizeResult" style="rounded=0;whiteSpace=wrap;html=1;" vertex="1" parent="1">
          <mxGeometry x="380" y="370" width="170" height="50" as="geometry" />
        </mxCell>
        <mxCell id="xRDu_YCOASXkidpbAp75-11" value="获取音频合成结果" style="text;html=1;strokeColor=none;fillColor=none;align=center;verticalAlign=middle;whiteSpace=wrap;rounded=0;" vertex="1" parent="1">
          <mxGeometry x="270" y="380" width="60" height="30" as="geometry" />
        </mxCell>
        <mxCell id="xRDu_YCOASXkidpbAp75-14" value="" style="edgeStyle=orthogonalEdgeStyle;rounded=0;orthogonalLoop=1;jettySize=auto;html=1;" edge="1" parent="1" target="xRDu_YCOASXkidpbAp75-15">
          <mxGeometry relative="1" as="geometry">
            <mxPoint x="465" y="420" as="sourcePoint" />
          </mxGeometry>
        </mxCell>
        <mxCell id="xRDu_YCOASXkidpbAp75-15" value="getTextAudioData" style="rounded=0;whiteSpace=wrap;html=1;" vertex="1" parent="1">
          <mxGeometry x="380" y="470" width="170" height="50" as="geometry" />
        </mxCell>
        <mxCell id="xRDu_YCOASXkidpbAp75-16" value="调用语音合成Api" style="text;html=1;strokeColor=none;fillColor=none;align=center;verticalAlign=middle;whiteSpace=wrap;rounded=0;" vertex="1" parent="1">
          <mxGeometry x="270" y="480" width="60" height="30" as="geometry" />
        </mxCell>
      </root>
    </mxGraphModel>
  </diagram>
</mxfile>
